<svg xmlns="http://www.w3.org/2000/svg" xmlns:xlink="http://www.w3.org/1999/xlink" width="1060" height="173.68"><rect width="1060" height="173.68" rx="0" ry="0" class="a"/><svg height="173.68" viewBox="0 0 106 17.368" width="1060" xmlns="http://www.w3.org/2000/svg" xmlns:xlink="http://www.w3.org/1999/xlink"><style>@keyframes k{0%{transform:translateX(0)}7.8%{transform:translateX(-106px)}14.8%{transform:translateX(-212px)}17.1%{transform:translateX(-318px)}17.7%{transform:translateX(-424px)}21.7%{transform:translateX(-530px)}23.1%{transform:translateX(-636px)}24.3%{transform:translateX(-742px)}25.3%{transform:translateX(-848px)}31.3%{transform:translateX(-954px)}32.4%{transform:translateX(-1060px)}33.2%{transform:translateX(-1166px)}34%{transform:translateX(-1272px)}35.2%{transform:translateX(-1378px)}37.4%{transform:translateX(-1484px)}38.9%{transform:translateX(-1590px)}40.4%{transform:translateX(-1696px)}41.2%{transform:translateX(-1802px)}43%{transform:translateX(-1908px)}44.3%{transform:translateX(-2014px)}46.6%{transform:translateX(-2120px)}51%{transform:translateX(-2226px)}56.6%{transform:translateX(-2332px)}62.2%{transform:translateX(-2438px)}70.1%{transform:translateX(-2544px)}74.5%{transform:translateX(-2650px)}81.4%{transform:translateX(-2756px)}to{transform:translateX(-2862px)}}.a{fill:#282d35}.c{fill:#b9c0cb}</style><g font-size="1.67" font-family="Monaco,Consolas,Menlo,'Bitstream Vera Sans Mono','Powerline Symbols',monospace"><defs><symbol id="1"><text y="1.67" class="c">bash-3.2$</text></symbol><symbol id="2"><text y="1.67" class="c">bash-3.2$</text><text x="10.02" y="1.67" class="c">pipenv</text></symbol><symbol id="3"><text y="1.67" class="c">bash-3.2$</text><text x="10.02" y="1.67" class="c">pipenv</text><text x="17.034" y="1.67" class="c">run</text></symbol><symbol id="4"><text y="1.67" class="c">bash-3.2$</text><text x="10.02" y="1.67" class="c">pipenv</text><text x="17.034" y="1.67" class="c">run</text><text x="21.042" y="1.67" class="c">example</text></symbol><symbol id="5"><text y="1.67" class="c">2019-02-28</text><text x="11.022" y="1.67" class="c">08:41:13</text><text x="20.04" y="1.67" class="c">my-logger</text><text x="30.06" y="1.67" class="c">[</text><text x="31.062" y="1.67" fill="#71bef2">DEBUG</text><text x="36.072" y="1.67" class="c">]</text><text x="38.076" y="1.67" class="c">Debug</text><text x="44.088" y="1.67" class="c">message</text></symbol><symbol id="6"><text y="1.67" class="c">2019-02-28</text><text x="11.022" y="1.67" class="c">08:41:14</text><text x="20.04" y="1.67" class="c">my-logger</text><text x="30.06" y="1.67" class="c">[</text><text x="31.062" y="1.67" fill="#a8cc8c">INFO</text><text x="35.07" y="1.67" class="c">]</text><text x="37.074" y="1.67" class="c">Info</text><text x="42.084" y="1.67" class="c">message</text></symbol><symbol id="7"><text y="1.67" class="c">2019-02-28</text><text x="11.022" y="1.67" class="c">08:41:14</text><text x="20.04" y="1.67" class="c">my-logger</text><text x="30.06" y="1.67" class="c">[</text><text x="31.062" y="1.67" fill="#d290e4">WARN</text><text x="35.07" y="1.67" class="c">]</text><text x="37.074" y="1.67" class="c">Warnings</text><text x="46.092" y="1.67" class="c">message.</text></symbol><symbol id="8"><text y="1.67" class="c">2019-02-28</text><text x="11.022" y="1.67" class="c">08:41:15</text><text x="20.04" y="1.67" class="c">my-logger</text><text x="30.06" y="1.67" class="c">[</text><text x="31.062" y="1.67" fill="#e88388">ERROR</text><text x="36.072" y="1.67" class="c">]</text><text x="38.076" y="1.67" class="c">Error</text><text x="44.088" y="1.67" class="c">message</text></symbol><symbol id="9"><text y="1.67" class="c">2019-02-28</text><text x="11.022" y="1.67" class="c">08:41:15</text><text x="20.04" y="1.67" class="c">my-logger</text><text x="30.06" y="1.67" class="c">[</text><text x="31.062" y="1.67" fill="#e88388" font-weight="700">CRITICAL</text><text x="39.078" y="1.67" class="c">]</text><text x="41.082" y="1.67" class="c">Critical</text><text x="50.1" y="1.67" class="c">message</text></symbol><symbol id="a"><path fill="transparent" d="M0 0h106v9H0z"/></symbol><symbol id="b"><path fill="#6f7683" d="M0 0h1.102v2.171H0z"/></symbol></defs><path class="a" d="M0 0h106v17.368H0z"/><g style="animation-duration:8.970272s;animation-iteration-count:infinite;animation-name:k;animation-timing-function:steps(1,end)"><svg width="2968"><svg><use xlink:href="#a"/><use xlink:href="#b" x="-.004"/></svg><svg x="106"><use xlink:href="#a"/><use xlink:href="#b" x="9.996"/><use xlink:href="#1"/></svg><svg x="212"><use xlink:href="#a"/><use xlink:href="#b" x="10.996"/><text y="1.67" class="c">bash-3.2$</text><text x="10.02" y="1.67" class="c">p</text></svg><svg x="318"><use xlink:href="#a"/><use xlink:href="#b" x="11.996"/><text y="1.67" class="c">bash-3.2$</text><text x="10.02" y="1.67" class="c">pi</text></svg><svg x="424"><use xlink:href="#a"/><use xlink:href="#b" x="12.996"/><text y="1.67" class="c">bash-3.2$</text><text x="10.02" y="1.67" class="c">pip</text></svg><svg x="530"><use xlink:href="#a"/><use xlink:href="#b" x="13.996"/><text y="1.67" class="c">bash-3.2$</text><text x="10.02" y="1.67" class="c">pipe</text></svg><svg x="636"><use xlink:href="#a"/><use xlink:href="#b" x="14.996"/><text y="1.67" class="c">bash-3.2$</text><text x="10.02" y="1.67" class="c">pipen</text></svg><svg x="742"><use xlink:href="#a"/><use xlink:href="#b" x="15.996"/><use xlink:href="#2"/></svg><svg x="848"><use xlink:href="#a"/><use xlink:href="#b" x="16.996"/><use xlink:href="#2"/></svg><svg x="954"><use xlink:href="#a"/><use xlink:href="#b" x="17.996"/><text y="1.67" class="c">bash-3.2$</text><text x="10.02" y="1.67" class="c">pipenv</text><text x="17.034" y="1.67" class="c">r</text></svg><svg x="1060"><use xlink:href="#a"/><use xlink:href="#b" x="18.996"/><text y="1.67" class="c">bash-3.2$</text><text x="10.02" y="1.67" class="c">pipenv</text><text x="17.034" y="1.67" class="c">ru</text></svg><svg x="1166"><use xlink:href="#a"/><use xlink:href="#b" x="19.996"/><use xlink:href="#3"/></svg><svg x="1272"><use xlink:href="#a"/><use xlink:href="#b" x="20.996"/><use xlink:href="#3"/></svg><svg x="1378"><use xlink:href="#a"/><use xlink:href="#b" x="21.996"/><text y="1.67" class="c">bash-3.2$</text><text x="10.02" y="1.67" class="c">pipenv</text><text x="17.034" y="1.67" class="c">run</text><text x="21.042" y="1.67" class="c">e</text></svg><svg x="1484"><use xlink:href="#a"/><use xlink:href="#b" x="22.996"/><text y="1.67" class="c">bash-3.2$</text><text x="10.02" y="1.67" class="c">pipenv</text><text x="17.034" y="1.67" class="c">run</text><text x="21.042" y="1.67" class="c">ex</text></svg><svg x="1590"><use xlink:href="#a"/><use xlink:href="#b" x="23.996"/><text y="1.67" class="c">bash-3.2$</text><text x="10.02" y="1.67" class="c">pipenv</text><text x="17.034" y="1.67" class="c">run</text><text x="21.042" y="1.67" class="c">exa</text></svg><svg x="1696"><use xlink:href="#a"/><use xlink:href="#b" x="24.996"/><text y="1.67" class="c">bash-3.2$</text><text x="10.02" y="1.67" class="c">pipenv</text><text x="17.034" y="1.67" class="c">run</text><text x="21.042" y="1.67" class="c">exam</text></svg><svg x="1802"><use xlink:href="#a"/><use xlink:href="#b" x="25.996"/><text y="1.67" class="c">bash-3.2$</text><text x="10.02" y="1.67" class="c">pipenv</text><text x="17.034" y="1.67" class="c">run</text><text x="21.042" y="1.67" class="c">examp</text></svg><svg x="1908"><use xlink:href="#a"/><use xlink:href="#b" x="26.996"/><text y="1.67" class="c">bash-3.2$</text><text x="10.02" y="1.67" class="c">pipenv</text><text x="17.034" y="1.67" class="c">run</text><text x="21.042" y="1.67" class="c">exampl</text></svg><svg x="2014"><use xlink:href="#a"/><use xlink:href="#b" x="27.996"/><use xlink:href="#4"/></svg><svg x="2120"><use xlink:href="#a"/><use xlink:href="#b" x="-.004" y="2.146"/><use xlink:href="#4"/></svg><svg x="2226"><use xlink:href="#a"/><use xlink:href="#b" x="-.004" y="4.317"/><use xlink:href="#4"/><use xlink:href="#5" y="2.171"/></svg><svg x="2332"><use xlink:href="#a"/><use xlink:href="#b" x="-.004" y="6.488"/><use xlink:href="#4"/><use xlink:href="#5" y="2.171"/><use xlink:href="#6" y="4.342"/></svg><svg x="2438"><use xlink:href="#a"/><use xlink:href="#b" x="-.004" y="8.659"/><use xlink:href="#4"/><use xlink:href="#5" y="2.171"/><use xlink:href="#6" y="4.342"/><use xlink:href="#7" y="6.513"/></svg><svg x="2544"><use xlink:href="#a"/><use xlink:href="#b" x="-.004" y="10.83"/><use xlink:href="#4"/><use xlink:href="#5" y="2.171"/><use xlink:href="#6" y="4.342"/><use xlink:href="#7" y="6.513"/><use xlink:href="#8" y="8.684"/></svg><svg x="2650"><use xlink:href="#a"/><use xlink:href="#b" x="-.004" y="13.001"/><use xlink:href="#4"/><use xlink:href="#5" y="2.171"/><use xlink:href="#6" y="4.342"/><use xlink:href="#7" y="6.513"/><use xlink:href="#8" y="8.684"/><use xlink:href="#9" y="10.855"/></svg><svg x="2756"><use xlink:href="#a"/><use xlink:href="#b" x="9.996" y="13.001"/><use xlink:href="#4"/><use xlink:href="#5" y="2.171"/><use xlink:href="#6" y="4.342"/><use xlink:href="#7" y="6.513"/><use xlink:href="#8" y="8.684"/><use xlink:href="#9" y="10.855"/><use xlink:href="#1" y="13.026"/></svg><svg x="2862"><use xlink:href="#a"/><use xlink:href="#b" x="-.004" y="15.172"/><use xlink:href="#4"/><use xlink:href="#5" y="2.171"/><use xlink:href="#6" y="4.342"/><use xlink:href="#7" y="6.513"/><use xlink:href="#8" y="8.684"/><use xlink:href="#9" y="10.855"/><text y="14.696" class="c">bash-3.2$</text><text x="10.02" y="14.696" class="c">exit</text></svg></svg></g></g></svg></svg>